<svg xmlns="http://www.w3.org/2000/svg" width="160.084" height="24.962" viewBox="0 0 160.084 24.962">
  <defs>
    <style>
      .cls-1 {
        fill: #fff;
      }
    </style>
  </defs>
  <g id="그룹_61" data-name="그룹 61" transform="translate(-55.682 -408.859)">
    <g id="그룹_60" data-name="그룹 60" transform="translate(55.682 408.859)">
      <path id="패스_204" data-name="패스 204" class="cls-1" d="M84.455,426.223a1.17,1.17,0,0,0-.974-.5,1.767,1.767,0,0,0-1.328.73c-1.987,2.418-3.443,2.925-4.315,2.925a1.855,1.855,0,0,1-1.177-.387l-.169-.165a1.875,1.875,0,0,1-.386-1.24c.022-.863.547-2.3,2.922-4.255a1.748,1.748,0,0,0,.74-1.381,1.185,1.185,0,0,0-.517-.933,1.394,1.394,0,0,0-.785-.24,2.372,2.372,0,0,0-1.63.842c-2.254,2.249-2.9,4.486-1.934,6.453a4.1,4.1,0,0,0-1.829-.439,6.85,6.85,0,0,0-4.625,2.363c-1.24,1.239-.821,2.117-.584,2.435a1.221,1.221,0,0,0,.983.463,1.718,1.718,0,0,0,1.312-.695c1.987-2.42,3.444-2.927,4.317-2.927a1.856,1.856,0,0,1,1.186.393l.158.162a1.859,1.859,0,0,1,.389,1.231c-.019.865-.542,2.306-2.923,4.263a1.683,1.683,0,0,0-.72,1.3,1.322,1.322,0,0,0,1.3,1.3,2.434,2.434,0,0,0,1.622-.883c2.25-2.255,2.9-4.5,1.925-6.462a4.1,4.1,0,0,0,1.832.44h0a6.765,6.765,0,0,0,4.624-2.366c.923-.926,1.11-1.7.588-2.425" transform="translate(-63.658 -416.833)"/>
      <path id="패스_205" data-name="패스 205" class="cls-1" d="M68.163,431.758A10.418,10.418,0,1,1,78.581,421.34a10.431,10.431,0,0,1-10.418,10.418m0-22.9A12.481,12.481,0,1,0,80.644,421.34a12.5,12.5,0,0,0-12.481-12.481" transform="translate(-55.682 -408.859)"/>
      <path id="패스_206" data-name="패스 206" class="cls-1" d="M159.375,436.362a15.7,15.7,0,0,1-3.829-.417,19.727,19.727,0,0,1-3.063-1.05v-4.51h.439a10.454,10.454,0,0,0,3.138,1.848,9.466,9.466,0,0,0,3.33.643,7.684,7.684,0,0,0,1.077-.086,3.811,3.811,0,0,0,1.076-.283,2.326,2.326,0,0,0,.836-.6,1.457,1.457,0,0,0,.354-1.024,1.416,1.416,0,0,0-.561-1.158,3.677,3.677,0,0,0-1.34-.655c-.647-.165-1.336-.329-2.08-.486a15.984,15.984,0,0,1-2.054-.562,6.423,6.423,0,0,1-3.163-2.092,5.5,5.5,0,0,1-.954-3.3,5.114,5.114,0,0,1,2.261-4.325,9.263,9.263,0,0,1,5.637-1.656,16.9,16.9,0,0,1,3.379.347,15.073,15.073,0,0,1,3.006.935v4.361h-.42a9.625,9.625,0,0,0-2.58-1.535,8.163,8.163,0,0,0-3.131-.616,6.512,6.512,0,0,0-1.125.085,4.054,4.054,0,0,0-1.044.338,2.083,2.083,0,0,0-.771.6,1.388,1.388,0,0,0-.324.892,1.431,1.431,0,0,0,.513,1.159,5.408,5.408,0,0,0,1.992.773c.638.146,1.256.285,1.845.416a19.383,19.383,0,0,1,1.9.562,6.5,6.5,0,0,1,2.937,1.924,4.966,4.966,0,0,1,.96,3.181,5.5,5.5,0,0,1-2.227,4.571,9.558,9.558,0,0,1-6.01,1.719" transform="translate(-120.46 -414.072)"/>
      <path id="패스_207" data-name="패스 207" class="cls-1" d="M222.323,434.336a21.777,21.777,0,0,1-6.5,1.1c-3.56,0-6.127-.9-7.92-2.6a9.764,9.764,0,0,1-2.745-7.107c.028-6.474,4.741-10.176,11.126-10.176a14.142,14.142,0,0,1,5.4.925l-.93,3.557a10.186,10.186,0,0,0-4.5-.843c-3.667,0-6.469,2.053-6.469,6.306,0,4.043,2.54,6.384,6.15,6.384a6.791,6.791,0,0,0,2.143-.261v-4.1h-3.008v-3.437h7.252Z" transform="translate(-155.71 -413.337)"/>
      <path id="패스_208" data-name="패스 208" class="cls-1" d="M297.7,429.335c-.084-2.326-.174-5.14-.174-7.959h-.048c-.613,2.476-1.381,5.23-2.1,7.494l-2.273,7.56h-3.281l-1.989-7.472c-.6-2.291-1.206-5.048-1.677-7.582h-.06c-.079,2.615-.194,5.6-.312,8.019l-.353,7.348h-3.886l1.178-19.355h5.6l1.832,6.463c.6,2.239,1.155,4.651,1.57,6.917h.113c.495-2.232,1.128-4.792,1.765-6.945l1.957-6.436h5.52l1,19.355H298Z" transform="translate(-206.835 -414.567)"/>
      <path id="패스_209" data-name="패스 209" class="cls-1" d="M355.666,438.238c0-1.065-.451-2.849-2.372-2.849-1.768,0-2.487,1.7-2.594,2.849Zm-4.941,2.978c.115,1.818,1.846,2.678,3.812,2.678a10.588,10.588,0,0,0,3.731-.612l.547,2.962a12.3,12.3,0,0,1-4.887.891c-4.582,0-7.206-2.76-7.206-7.15,0-3.558,2.125-7.5,6.823-7.5,4.359,0,6.017,3.533,6.017,7.01a11.237,11.237,0,0,1-.14,1.716Z" transform="translate(-250.443 -424.673)"/>
      <path id="패스_210" data-name="패스 210" class="cls-1" d="M396.264,426.565a4.2,4.2,0,0,0-.054-.8,2.546,2.546,0,0,0-2.455-2.12c-1.932,0-2.9,1.778-2.9,3.991,0,2.377,1.132,3.874,2.872,3.874a2.516,2.516,0,0,0,2.457-2.1,6.4,6.4,0,0,0,.077-1Zm4.2-12.285v16.187c0,1.584.06,3.247.11,4.2h-3.728l-.168-2.036h-.082a4.673,4.673,0,0,1-4.218,2.35c-3.2,0-5.78-2.844-5.78-7.2-.02-4.736,2.819-7.5,6.054-7.5a4.094,4.094,0,0,1,3.561,1.579h.054V414.28Z" transform="translate(-277.126 -412.487)"/>
      <path id="패스_211" data-name="패스 211" class="cls-1" d="M434.314,421.14H438.5v14.043h-4.182Zm4.325-3.9a2.22,2.22,0,1,1-2.211-2.178,2.124,2.124,0,0,1,2.211,2.178" transform="translate(-308.982 -413.007)"/>
      <path id="패스_212" data-name="패스 212" class="cls-1" d="M461.794,446.477a9.345,9.345,0,0,1-3.762.659c-4.364,0-7.146-2.785-7.146-7.174,0-4.108,2.7-7.471,7.731-7.471a9.305,9.305,0,0,1,3.195.548l-.653,3.248a5.5,5.5,0,0,0-2.345-.433,3.942,3.942,0,0,0,.076,7.863,5.776,5.776,0,0,0,2.4-.454Z" transform="translate(-320.148 -424.673)"/>
      <path id="패스_213" data-name="패스 213" class="cls-1" d="M492.4,440.154c-2.207,0-3.92.549-3.92,2.214a1.536,1.536,0,0,0,1.659,1.667,2.326,2.326,0,0,0,2.177-1.61,3.209,3.209,0,0,0,.084-.745Zm4.058,3.251a18.282,18.282,0,0,0,.229,3.385H492.9l-.245-1.412h-.086A4.766,4.766,0,0,1,488.7,447.1a4.221,4.221,0,0,1-4.363-4.31c0-3.643,3.158-5.364,7.928-5.364v-.171c0-.778-.388-1.842-2.451-1.842a7.388,7.388,0,0,0-3.735,1.064l-.776-2.815a10.815,10.815,0,0,1,5.246-1.265c4.507,0,5.908,2.765,5.908,6.092Z" transform="translate(-342.533 -424.614)"/>
    </g>
    <rect id="사각형_91" data-name="사각형 91" class="cls-1" width="4.195" height="20.383" transform="translate(211.571 410.652)"/>
  </g>
</svg>
